<svg width="316.823820" xmlns="http://www.w3.org/2000/svg" height="317.360259" id="screenshot-7b5df0bf-2f17-80cf-8007-b5161f27e8bd" viewBox="-4.234878 -4.247299 316.823820 317.360259" xmlns:xlink="http://www.w3.org/1999/xlink" fill="none" version="1.1"><g id="shape-7b5df0bf-2f17-80cf-8007-b5161f27e8bd" rx="0" ry="0"><g id="shape-e6089ddd-50fe-8082-8007-b5053444d4c1" width="1500" height="801" rx="0" ry="0" style="fill: rgb(0, 0, 0);"><g id="shape-e6089ddd-50fe-8082-8007-b5053446b9c2"><g class="fills" id="fills-e6089ddd-50fe-8082-8007-b5053446b9c2"><path d="M59.403564453125,0.548828125C67.20257568359375,-0.47119140625,80.16162109375,0.2437744140625,88.4605712890625,0.24078369140625L146.50048828125,0.227783203125L214.8255615234375,0.23577880859375C240.16748046875,0.2437744140625,262.236572265625,-2.67620849609375,283.3775634765625,14.2947998046875C311.0205078125,36.48480224609375,307.6495361328125,66.8988037109375,307.671630859375,98.5548095703125L307.6895751953125,162.74783325195312L307.66552734375,217.54684448242188C307.6585693359375,226.07479858398438,307.653564453125,234.5628662109375,307.504638671875,243.0877685546875C306.8895263671875,278.2227783203125,283.66259765625,304.5137939453125,248.32958984375,308.1297607421875C240.6875,308.9278564453125,226.1695556640625,308.5008544921875,217.8525390625,308.4927978515625L161.468505859375,308.4508056640625L93.9794921875,308.5028076171875C68.57257080078125,308.5147705078125,46.83258056640625,311.5418701171875,25.39654541015625,295.0338134765625C-2.66644287109375,273.423828125,0.13555908203125,245.0108642578125,0.10955810546875,213.40182495117188L0.0855712890625,154.30581665039062L0.10357666015625,95.5968017578125C0.112548828125,81.48980712890625,-0.62841796875,66.85577392578125,1.7275390625,52.96478271484375C6.78955078125,23.11376953125,30.14154052734375,3.88580322265625,59.403564453125,0.548828125Z" style="fill: rgb(29, 30, 35);"/></g></g></g><g id="shape-7b5df0bf-2f17-80cf-8007-b5115caa8fea" rx="0" ry="0"><g id="shape-7b5df0bf-2f17-80cf-8007-b5115caa8feb"><g class="fills" id="fills-7b5df0bf-2f17-80cf-8007-b5115caa8feb"><ellipse cx="113.3257670641164" cy="150.86303791579667" rx="51.325767064116405" ry="51.52454059083652" transform="matrix(1.000000, 0.000000, 0.000000, 1.000000, 0.000000, 0.000000)" style="fill: rgb(162, 211, 244); fill-opacity: 1;"/></g></g><g id="shape-7b5df0bf-2f17-80cf-8007-b5115caa8fec" width="99" height="153" rx="0" ry="0" style="fill: rgb(0, 0, 0);"><g id="shape-7b5df0bf-2f17-80cf-8007-b5115caa8fed" style="display: none;"><g class="fills" id="fills-7b5df0bf-2f17-80cf-8007-b5115caa8fed"><rect width="149.4211641219764" height="230.96595738304563" x="128.6208597050403" transform="matrix(0.002489, 0.999997, -0.999997, 0.002508, 348.824923, -57.697003)" style="fill: none;" ry="0" fill="none" rx="0" y="30.517021308476842"/></g></g><g id="shape-7b5df0bf-2f17-80cf-8007-b5115caa8fee" rx="0" ry="0" style="opacity: 1; fill: rgb(162, 211, 244); fill-opacity: 1;"><g id="shape-7b5df0bf-2f17-80cf-8007-b5115caa8fef"><g class="fills" id="fills-7b5df0bf-2f17-80cf-8007-b5115caa8fef"><path d="M228.05255126953125,197.78256225585938L227.611572265625,165.51681518554688L156.5028076171875,165.69512939453125L95.43316650390625,165.28231811523438L95.4334716796875,135.09622192382812L156.503173828125,135.26748657226562L227.535888671875,135.08938598632812L227.53631591796875,101.200927734375L252.20697021484375,101.20071411132812L252.20599365234375,197.78225708007812" style="fill: rgb(162, 211, 244);"/></g></g></g></g></g></g></svg>