<svg width="395.190333" xmlns="http://www.w3.org/2000/svg" height="147.954921" id="screenshot-7b5df0bf-2f17-80cf-8007-b5160e38a868" viewBox="-1.956388 10.267550 395.190333 147.954921" xmlns:xlink="http://www.w3.org/1999/xlink" fill="none" version="1.1"><g id="shape-7b5df0bf-2f17-80cf-8007-b5160e38a868" rx="0" ry="0"><g id="shape-7b5df0bf-2f17-80cf-8007-b51100810588" rx="0" ry="0"><g id="shape-e6089ddd-50fe-8082-8007-b50c0f51e6d0"><g class="fills" id="fills-e6089ddd-50fe-8082-8007-b50c0f51e6d0"><ellipse cx="337.16000366210943" cy="30.99999999999997" rx="20.000000000000057" ry="19.99999999999997" transform="matrix(1.000000, 0.000000, 0.000000, 1.000000, 0.000000, 0.000000)" style="fill: rgb(62, 142, 214); fill-opacity: 1;"/></g></g><g id="shape-7b5df0bf-2f17-80cf-8007-b50e6485898a" width="99" height="153" rx="0" ry="0" style="fill: rgb(0, 0, 0);"><g id="shape-7b5df0bf-2f17-80cf-8007-b50e64872daf" style="display: none;"><g class="fills" id="fills-7b5df0bf-2f17-80cf-8007-b50e64872daf"><rect width="58" height="89.99999999999994" x="343.23231912871574" transform="matrix(0.002498, 0.999997, -0.999997, 0.002498, 400.414554, -343.191553)" style="fill: none;" ry="0" fill="none" rx="0" y="-15.887658913609755"/></g></g><g id="shape-7b5df0bf-2f17-80cf-8007-b50e648fd603" rx="0" ry="0" style="opacity: 1; fill: rgb(62, 142, 214); fill-opacity: 1;"><g id="shape-7b5df0bf-2f17-80cf-8007-b50e64872db0"><g class="fills" id="fills-7b5df0bf-2f17-80cf-8007-b50e64872db0"><path d="M381.8653869628906,49.212493896484375L381.6935119628906,36.688079833984375L353.9847106933594,36.757293701171875L330.1878356933594,36.5970458984375L330.1879577636719,24.8798828125L353.9848327636719,24.94635009765625L381.6640319824219,24.877227783203125L381.6641540527344,11.722930908203125L391.2775573730469,11.72283935546875L391.2771301269531,49.212371826171875" style="fill: rgb(62, 142, 214);"/></g></g></g></g></g><g id="shape-7b5df0bf-2f17-80cf-8007-b513421bb029" style="opacity: 1;"><g class="fills" id="fills-7b5df0bf-2f17-80cf-8007-b513421bb029"><path d="M0,155.33001708984375L0,22.1300048828125L19.6199951171875,22.1300048828125L19.6199951171875,102.58999633789062L20.519989013671875,102.58999633789062L35.100006103515625,87.6500244140625L61.20001220703125,62.45001220703125L84.42001342773438,62.45001220703125L46.800018310546875,98.989990234375L88.55999755859375,155.33001708984375L64.98001098632812,155.33001708984375L32.579986572265625,110.1500244140625L19.6199951171875,122.21002197265625L19.6199951171875,155.33001708984375L0,155.33001708984375L0,155.33001708984375M110.33999633789062,155.33001708984375L110.33999633789062,139.49002075195312L132.01998901367188,139.49002075195312L132.01998901367188,78.28997802734375L100.33999633789062,78.28997802734375L100.33999633789062,62.45001220703125L151.63998413085938,62.45001220703125L151.63998413085938,139.49002075195312L171.33999633789062,139.49002075195312L171.33999633789062,155.33001708984375L110.33999633789062,155.33001708984375L110.33999633789062,155.33001708984375M194.3800048828125,155.33001708984375L194.3800048828125,22.1300048828125L214,22.1300048828125L214.08001708984375,70L215.16000366210938,70C221.16000366210938,65,220.16000366210938,66,224.16000366210938,64C229.1324462890625,61.513824462890625,236.32000732421875,60.28997802734375,243.16000366210938,60.28997802734375L243.16000366210938,60.28997802734375C254.08004760742188,60.28997802734375,262.7799987792969,64.3699951171875,269.2599792480469,72.52999877929688C275.7399597167969,80.69000244140625,278.9800109863281,92.80999755859375,278.9800109863281,108.8900146484375L278.9800109863281,108.8900146484375C278.9800109863281,124.97000122070312,275.7399597167969,137.08999633789062,269.2599792480469,145.25C262.7799987792969,153.41000366210938,254.08004760742188,157.49002075195312,243.16000366210938,157.49002075195312L243.16000366210938,157.49002075195312C236.32000732421875,157.49002075195312,227.92709350585938,156.8602294921875,223.16000366210938,154C218.16000366210938,151,219.16000366210938,152,215.16000366210938,147L215.16000366210938,147L214.08001708984375,147L214,155.33001708984375L194.3800048828125,155.33001708984375L194.3800048828125,155.33001708984375M235.05999755859375,141.47000122070312L235.05999755859375,141.47000122070312C242.5,141.47000122070312,248.23001098632812,139.19000244140625,252.24996948242188,134.6300048828125C256.2699890136719,130.07000732421875,258.2799987792969,124.010009765625,258.2799987792969,116.45001220703125L258.2799987792969,116.45001220703125L258.2799987792969,101.33001708984375C258.2799987792969,93.77001953125,256.2699890136719,87.71002197265625,252.24996948242188,83.1500244140625C248.23001098632812,78.59002685546875,242.5,76.30999755859375,235.05999755859375,76.30999755859375L235.05999755859375,76.30999755859375C232.18002319335938,76.30999755859375,229.48001098632812,76.66998291015625,226.95999145507812,77.3900146484375C224.44000244140625,78.1099853515625,222.22000122070312,79.19000244140625,220.30001831054688,80.6300048828125C218.3800048828125,82.07000732421875,216.85000610351562,83.84002685546875,215.70999145507812,85.94000244140625C214.57000732421875,88.03997802734375,214,90.52999877929688,214,93.41000366210938L214,93.41000366210938L214,124.3699951171875C214,127.25,214.57000732421875,129.74002075195312,215.70999145507812,131.83999633789062C216.85000610351562,133.94000244140625,218.3800048828125,135.70999145507812,220.30001831054688,137.14999389648438C222.22000122070312,138.58999633789062,224.44000244140625,139.67001342773438,226.95999145507812,140.3900146484375C229.48001098632812,141.11001586914062,232.18002319335938,141.47000122070312,235.05999755859375,141.47000122070312L235.05999755859375,141.47000122070312M306.3399963378906,155.33001708984375L306.3399963378906,139.49002075195312L328.0199890136719,139.49002075195312L328.0199890136719,78.28997802734375L296.3399963378906,78.28997802734375L296.3399963378906,62.45001220703125L347.6399841308594,62.45001220703125L347.6399841308594,139.49002075195312L367.3399963378906,139.49002075195312L367.3399963378906,155.33001708984375L306.3399963378906,155.33001708984375L306.3399963378906,155.33001708984375" style="fill: rgb(162, 211, 244); fill-opacity: 1;"/></g></g><g id="shape-7b5df0bf-2f17-80cf-8007-b514e03a8af5"><g class="fills" id="fills-7b5df0bf-2f17-80cf-8007-b514e03a8af5"><ellipse cx="141.66000366210938" cy="31.5" rx="12.5" ry="12.5" transform="matrix(1.000000, 0.000000, 0.000000, 1.000000, 0.000000, 0.000000)" style="fill: rgb(162, 211, 244); fill-opacity: 1;"/></g></g></g></svg>